<?xml version="1.0" standalone="no"?>
<!DOCTYPE svg PUBLIC "-//W3C//DTD SVG 20010904//EN"
 "http://www.w3.org/TR/2001/REC-SVG-20010904/DTD/svg10.dtd">
<svg version="1.0" xmlns="http://www.w3.org/2000/svg"
 width="343.000000pt" height="343.000000pt" viewBox="0 0 343.000000 343.000000"
 preserveAspectRatio="xMidYMid meet">
<metadata>
Created by potrace 1.14, written by Peter Selinger 2001-2017
</metadata>
<g transform="translate(0.000000,343.000000) scale(0.100000,-0.100000)"
fill="#000000" stroke="none">
<path d="M1077 3253 c-41 -76 -94 -174 -117 -218 -24 -44 -46 -84 -50 -90 -4
-5 -33 -59 -65 -120 -32 -60 -75 -139 -95 -175 -20 -36 -60 -108 -87 -160 -28
-52 -88 -162 -133 -245 -88 -161 -133 -244 -213 -395 -28 -52 -56 -104 -64
-115 -7 -11 -13 -23 -13 -27 0 -5 161 -7 357 -6 l357 3 88 155 c48 85 94 167
103 183 l16 27 24 -43 c13 -25 43 -80 66 -123 24 -44 58 -106 75 -139 l31 -60
177 -3 c97 -1 176 -6 176 -11 0 -11 -25 -61 -75 -151 -23 -41 -58 -105 -78
-142 -81 -150 -112 -207 -159 -291 -26 -48 -48 -89 -48 -91 0 -3 -15 -31 -34
-63 -18 -32 -55 -98 -81 -148 -81 -152 -117 -219 -135 -250 -10 -16 -34 -61
-55 -100 -54 -100 -83 -153 -163 -301 -40 -72 -72 -135 -72 -140 0 -6 132 -10
354 -9 l354 0 103 183 c91 161 119 202 119 174 0 -5 37 -75 83 -158 45 -82 88
-161 95 -174 l13 -25 352 1 c194 1 353 2 355 3 4 1 -64 129 -159 303 -33 59
-59 108 -59 111 0 2 -26 51 -58 108 -33 58 -87 159 -122 225 -35 65 -66 124
-70 129 -4 6 -31 55 -60 110 -30 55 -77 144 -107 198 -29 54 -53 99 -53 101 0
3 -18 36 -40 75 -65 115 -170 314 -170 323 0 4 78 8 173 8 l174 0 102 180 c56
99 105 180 109 180 4 0 15 -17 25 -37 9 -21 28 -58 42 -83 14 -25 49 -89 78
-142 l51 -98 221 -1 c121 -1 276 -3 345 -3 69 -1 130 0 137 2 11 4 3 22 -90
192 -17 30 -52 98 -80 150 -27 52 -55 104 -62 115 -6 11 -36 65 -65 120 -29
55 -61 114 -70 130 -10 17 -39 71 -65 120 -26 50 -56 104 -65 120 -15 26 -65
119 -218 405 -19 36 -46 85 -59 110 -14 25 -44 79 -66 120 -63 117 -62 116
-80 88 -23 -38 -61 -106 -117 -213 -29 -55 -72 -134 -95 -175 -23 -41 -68
-124 -100 -185 -32 -60 -61 -114 -65 -120 -4 -5 -29 -50 -55 -100 -80 -151
-107 -200 -115 -208 -4 -5 -27 27 -50 70 -50 92 -235 435 -292 543 -23 41 -48
89 -58 105 -10 17 -42 77 -73 135 -74 141 -91 170 -99 170 -3 0 -40 -62 -81
-137z"/>
</g>
</svg>
